<?xml version="1.0" encoding="UTF-8"?>
<svg id="Layer_1" data-name="Layer 1" xmlns="http://www.w3.org/2000/svg" viewBox="0 0 208.17 85.28">
  <defs>
    <style>
      .cls-1 {
        fill: #62c7cc;
      }
    </style>
  </defs>
  <g>
    <path class="cls-1" d="M104.27,28.41c1.33,.75,2.37,1.85,3.12,3.3,.75,1.45,1.12,3.2,1.12,5.23v13.24h-5.7v-12.46c0-1.79-.45-3.17-1.34-4.13-.9-.96-2.12-1.45-3.67-1.45s-2.82,.48-3.73,1.45c-.91,.96-1.36,2.34-1.36,4.13v12.46h-5.7V20.04h5.7v10.38c.73-.98,1.71-1.74,2.93-2.3s2.58-.83,4.07-.83c1.71,0,3.23,.37,4.56,1.12Z"/>
    <path class="cls-1" d="M113.82,32.74c.91-1.76,2.14-3.12,3.71-4.07,1.56-.95,3.3-1.43,5.23-1.43,1.68,0,3.16,.34,4.42,1.02s2.27,1.53,3.03,2.57v-3.22h5.74v22.56h-5.74v-3.3c-.73,1.06-1.75,1.93-3.03,2.63-1.29,.69-2.78,1.04-4.46,1.04-1.9,0-3.63-.49-5.19-1.47-1.56-.98-2.8-2.35-3.71-4.13-.91-1.78-1.36-3.82-1.36-6.13s.45-4.3,1.36-6.07Zm15.58,2.59c-.54-.99-1.28-1.75-2.2-2.28-.92-.53-1.91-.79-2.97-.79s-2.04,.26-2.93,.77c-.9,.52-1.62,1.27-2.18,2.26-.56,.99-.83,2.17-.83,3.52s.28,2.55,.83,3.56c.56,1.02,1.29,1.8,2.2,2.34,.91,.54,1.88,.81,2.91,.81s2.05-.26,2.97-.79,1.66-1.29,2.2-2.28c.54-.99,.81-2.18,.81-3.56s-.27-2.57-.81-3.56Z"/>
    <path class="cls-1" d="M148.17,32.3v10.91c0,.76,.18,1.31,.55,1.65,.37,.34,.98,.51,1.85,.51h2.65v4.81h-3.58c-4.81,0-7.21-2.33-7.21-7v-10.87h-2.69v-4.68h2.69v-5.58h5.74v5.58h5.05v4.68h-5.05Z"/>
    <path class="cls-1" d="M161,49.54c-1.47-.67-2.63-1.57-3.48-2.71-.86-1.14-1.32-2.4-1.41-3.79h5.74c.11,.87,.54,1.59,1.28,2.16,.75,.57,1.68,.86,2.79,.86s1.93-.22,2.55-.65c.61-.43,.92-.99,.92-1.67,0-.73-.37-1.28-1.12-1.65-.75-.37-1.93-.77-3.56-1.2-1.68-.41-3.06-.83-4.13-1.26-1.07-.43-2-1.1-2.77-2s-1.16-2.1-1.16-3.62c0-1.25,.36-2.39,1.08-3.42,.72-1.03,1.75-1.85,3.09-2.44,1.34-.6,2.92-.9,4.74-.9,2.69,0,4.83,.67,6.43,2.02,1.6,1.34,2.48,3.16,2.65,5.44h-5.46c-.08-.9-.45-1.61-1.12-2.14-.67-.53-1.55-.79-2.67-.79-1.03,0-1.83,.19-2.38,.57-.56,.38-.83,.91-.83,1.59,0,.76,.38,1.34,1.14,1.73,.76,.39,1.94,.79,3.54,1.2,1.63,.41,2.97,.83,4.03,1.26,1.06,.43,1.97,1.11,2.75,2.02,.77,.91,1.17,2.11,1.2,3.6,0,1.3-.36,2.47-1.08,3.5-.72,1.03-1.75,1.84-3.09,2.42-1.34,.58-2.91,.88-4.7,.88s-3.5-.33-4.97-1Z"/>
  </g>
  <g>
    <path class="cls-1" d="M93.53,56.97c.56,.3,1,.73,1.32,1.31,.32,.58,.48,1.28,.48,2.1v5.34h-1.86v-5.06c0-.81-.2-1.43-.61-1.87s-.96-.65-1.66-.65-1.26,.22-1.67,.65-.62,1.05-.62,1.87v5.06h-1.87v-9.05h1.87v1.04c.31-.37,.7-.66,1.17-.87s.98-.31,1.52-.31c.71,0,1.35,.15,1.91,.44Z"/>
    <path class="cls-1" d="M105.94,61.9h-6.92c.05,.72,.32,1.3,.8,1.74,.48,.44,1.07,.66,1.77,.66,1.01,0,1.72-.42,2.14-1.26h2.02c-.27,.83-.77,1.51-1.49,2.04-.72,.53-1.61,.8-2.67,.8-.87,0-1.64-.19-2.32-.58s-1.22-.94-1.61-1.64c-.39-.71-.58-1.53-.58-2.46s.19-1.75,.57-2.46c.38-.71,.91-1.25,1.59-1.63s1.47-.58,2.36-.58,1.62,.19,2.28,.56,1.19,.9,1.56,1.57c.37,.67,.56,1.45,.56,2.33,0,.34-.02,.65-.07,.92Zm-1.89-1.51c-.01-.69-.26-1.24-.74-1.66-.48-.42-1.08-.62-1.79-.62-.65,0-1.2,.21-1.66,.62s-.73,.97-.82,1.67h5.01Z"/>
    <path class="cls-1" d="M120.01,56.68l-2.81,9.05h-1.97l-1.82-6.69-1.82,6.69h-1.97l-2.83-9.05h1.91l1.89,7.28,1.92-7.28h1.96l1.84,7.25,1.87-7.25h1.84Z"/>
    <path class="cls-1" d="M122.78,65.49c-.56-.26-1.01-.61-1.34-1.05-.33-.44-.5-.94-.53-1.49h1.94c.03,.38,.22,.7,.55,.96s.75,.39,1.26,.39,.93-.1,1.22-.3c.29-.2,.44-.46,.44-.78,0-.34-.16-.59-.49-.76s-.83-.35-1.54-.54c-.68-.19-1.23-.37-1.66-.54-.43-.17-.8-.44-1.11-.8s-.47-.84-.47-1.43c0-.48,.14-.92,.43-1.32,.29-.4,.69-.71,1.22-.95,.53-.23,1.14-.34,1.83-.34,1.03,0,1.86,.26,2.49,.78s.97,1.23,1.01,2.13h-1.87c-.03-.41-.2-.73-.49-.97-.29-.24-.7-.36-1.2-.36s-.87,.09-1.13,.28c-.26,.19-.39,.43-.39,.74,0,.24,.09,.44,.26,.61,.17,.16,.39,.29,.64,.39,.25,.09,.62,.21,1.12,.35,.66,.18,1.2,.35,1.62,.53s.79,.45,1.09,.8,.47,.82,.48,1.4c0,.51-.14,.97-.43,1.38-.29,.41-.69,.72-1.21,.95-.52,.23-1.13,.34-1.83,.34s-1.35-.13-1.91-.39Z"/>
    <path class="cls-1" d="M132.05,53.57v12.16h-1.87v-12.16h1.87Z"/>
    <path class="cls-1" d="M142.75,61.9h-6.92c.05,.72,.32,1.3,.8,1.74,.48,.44,1.07,.66,1.77,.66,1.01,0,1.72-.42,2.14-1.26h2.02c-.27,.83-.77,1.51-1.49,2.04-.72,.53-1.61,.8-2.67,.8-.87,0-1.64-.19-2.32-.58s-1.22-.94-1.61-1.64c-.39-.71-.58-1.53-.58-2.46s.19-1.75,.57-2.46c.38-.71,.91-1.25,1.59-1.63s1.47-.58,2.36-.58,1.62,.19,2.28,.56,1.19,.9,1.56,1.57c.37,.67,.56,1.45,.56,2.33,0,.34-.02,.65-.07,.92Zm-1.89-1.51c-.01-.69-.26-1.24-.74-1.66-.48-.42-1.08-.62-1.79-.62-.65,0-1.2,.21-1.66,.62s-.73,.97-.82,1.67h5.01Z"/>
    <path class="cls-1" d="M146.84,58.2v5.01c0,.34,.08,.58,.24,.73,.16,.15,.43,.22,.81,.22h1.15v1.56h-1.48c-.84,0-1.49-.2-1.94-.59-.45-.39-.67-1.04-.67-1.92v-5.01h-1.07v-1.53h1.07v-2.25h1.89v2.25h2.2v1.53h-2.2Z"/>
    <path class="cls-1" d="M152.95,58.2v5.01c0,.34,.08,.58,.24,.73,.16,.15,.43,.22,.81,.22h1.15v1.56h-1.48c-.84,0-1.49-.2-1.94-.59-.45-.39-.67-1.04-.67-1.92v-5.01h-1.07v-1.53h1.07v-2.25h1.89v2.25h2.2v1.53h-2.2Z"/>
    <path class="cls-1" d="M165.11,61.9h-6.92c.05,.72,.32,1.3,.8,1.74,.48,.44,1.07,.66,1.77,.66,1.01,0,1.72-.42,2.14-1.26h2.02c-.27,.83-.77,1.51-1.49,2.04-.72,.53-1.61,.8-2.67,.8-.87,0-1.64-.19-2.32-.58s-1.22-.94-1.61-1.64c-.39-.71-.58-1.53-.58-2.46s.19-1.75,.57-2.46c.38-.71,.91-1.25,1.59-1.63s1.47-.58,2.36-.58,1.62,.19,2.28,.56,1.19,.9,1.56,1.57c.37,.67,.56,1.45,.56,2.33,0,.34-.02,.65-.07,.92Zm-1.89-1.51c-.01-.69-.26-1.24-.74-1.66-.48-.42-1.08-.62-1.79-.62-.65,0-1.2,.21-1.66,.62s-.73,.97-.82,1.67h5.01Z"/>
    <path class="cls-1" d="M169.98,56.91c.45-.26,.99-.39,1.62-.39v1.94h-.48c-.73,0-1.29,.19-1.67,.56-.38,.37-.57,1.02-.57,1.94v4.76h-1.87v-9.05h1.87v1.31c.27-.46,.64-.82,1.09-1.08Z"/>
  </g>
  <path class="cls-1" d="M50.97,16.39c-15.26,0-27.63,12.38-27.63,27.64,0,15.27,12.37,27.64,27.63,27.64,15.27,0,27.64-12.37,27.64-27.64,0-15.26-12.37-27.64-27.64-27.64Zm-11.38,26.09c.11-1.13,.4-2.22,.85-3.26,.57-1.35,1.37-2.53,2.4-3.57,1.19-1.18,2.57-2.05,4.14-2.63,1.72-.63,3.48-.81,5.29-.59,.47,.06,.94,.17,1.4,.25,1.47,.4,2.8,1.05,4.01,1.97,.8,.6,1.5,1.31,2.12,2.09,.08,.1,.08,.18,.02,.3-.72,1.5-1.65,2.88-2.65,4.21-1.4,1.87-2.95,3.6-4.61,5.24-1.71,1.7-3.51,3.29-5.5,4.66-.84,.58-1.74,1.07-2.61,1.61-.13,.08-.23,.07-.35-.02-1.67-1.26-2.92-2.86-3.72-4.79-.73-1.76-.99-3.59-.79-5.47Zm28.31-12.15c-.17,1.33-.67,2.55-1.24,3.74-.94,1.94-2.1,3.75-3.34,5.51-1.6,2.27-3.36,4.41-5.22,6.46-2.47,2.74-4.85,5.04-7.29,7.14-1.81,1.56-3.68,3.05-5.66,4.38-1.63,1.09-3.3,2.09-5.13,2.82-.96,.38-1.94,.69-3,.66h-.3c-.2-.05-.4-.1-.6-.16-.86-.41-1.14-1.14-1.15-2.03,0-.2,.01-.4,.04-.59,.15-1.29,.62-2.47,1.16-3.63,.92-1.97,2.08-3.79,3.33-5.57,.01-.01,.03-.02,.04-.03,.24,.51,.46,1.03,.72,1.54,.18,.35,.39,.69,.6,1.03,.08,.13,.09,.24,.03,.38-.28,.69-.5,1.4-.47,2.15,.02,.67,.32,1.14,.88,1.28,.3,.08,.63,.09,.94,.06,.9-.09,1.72-.45,2.52-.85,1.4-.69,2.68-1.56,3.92-2.49,3.2-2.42,6.04-5.21,8.62-8.28,1.52-1.81,2.92-3.71,4.03-5.8,.43-.82,.83-1.65,1.04-2.55,.09-.4,.14-.82,.13-1.23-.03-.78-.52-1.24-1.31-1.28-.65-.03-1.27,.12-1.85,.38-.41,.19-.72,.14-1.11-.08-.65-.36-1.35-.64-2.03-.96-.07-.03-.13-.06-.24-.1,.14-.1,.25-.19,.37-.28,1.51-1.1,3.08-2.12,4.74-2.99,1.08-.56,2.18-1.06,3.36-1.34,.59-.14,1.19-.21,1.8-.16l.6,.15c.69,.34,1.04,.92,1.1,1.67,.03,.34,.02,.7-.03,1.05Z"/>
</svg>