<?xml version="1.0" encoding="UTF-8"?>
<svg id="Layer_1" data-name="Layer 1" xmlns="http://www.w3.org/2000/svg" viewBox="0 0 272 195.25">
  <defs>
    <style>
      .cls-1 {
        fill: #212120;
      }
    </style>
  </defs>
  <path class="cls-1" d="M17.53,44.82v103.92c0,14.64,11.87,26.51,26.51,26.51H227.96c14.64,0,26.51-11.87,26.51-26.51V44.82c0-14.64-11.87-26.51-26.51-26.51H44.04c-14.64,0-26.51,11.87-26.51,26.51Zm188.84-3.51l-70.37,70.35L65.64,41.31H206.37Zm14.36,110.93H51.27c-5.93,0-10.74-4.81-10.74-10.74V48.74l87.34,87.32c2.25,2.24,5.19,3.36,8.13,3.36s5.89-1.12,8.13-3.36L231.47,48.74v92.76c0,5.93-4.81,10.74-10.74,10.74Z"/>
</svg>