<?xml version="1.0" standalone="no"?>
<!DOCTYPE svg PUBLIC "-//W3C//DTD SVG 20010904//EN"
 "http://www.w3.org/TR/2001/REC-SVG-20010904/DTD/svg10.dtd">
<svg version="1.0" xmlns="http://www.w3.org/2000/svg"
 width="520.000000pt" height="520.000000pt" viewBox="0 0 520.000000 520.000000"
 preserveAspectRatio="xMidYMid meet">
<metadata>
Created by potrace 1.14, written by Peter Selinger 2001-2017
</metadata>
<g transform="translate(0.000000,520.000000) scale(0.100000,-0.100000)"
fill="#000000" stroke="none">
<path d="M2300 5085 c-393 -48 -771 -187 -1097 -405 -596 -397 -988 -1019
-1100 -1740 -25 -162 -25 -558 0 -720 87 -565 342 -1061 743 -1450 383 -371
854 -603 1394 -687 162 -25 558 -25 720 0 557 86 1028 323 1421 716 393 393
630 864 716 1421 25 162 25 558 0 720 -97 631 -405 1180 -887 1582 -376 314
-868 520 -1354 567 -143 14 -424 12 -556 -4z m1762 -1022 c18 -10 43 -37 56
-59 21 -35 23 -49 19 -139 -5 -124 -39 -232 -132 -413 -462 -908 -1736 -2136
-2475 -2383 -127 -42 -245 -46 -303 -10 -55 34 -79 88 -79 175 1 184 99 413
320 752 l85 130 63 -125 64 -125 -20 -54 c-60 -159 -24 -266 93 -279 332 -38
1277 758 1703 1434 188 298 245 512 159 593 -37 35 -128 39 -212 11 -34 -12
-73 -21 -85 -21 -22 0 -247 100 -248 110 0 3 33 28 73 57 223 159 502 307 657
348 113 30 209 29 262 -2z m-1292 -438 c107 -19 166 -38 261 -85 139 -68 270
-170 351 -273 l30 -37 -52 -93 c-158 -277 -432 -611 -722 -878 -210 -193 -335
-290 -532 -408 l-118 -72 -37 28 c-166 127 -307 349 -364 573 -30 120 -30 348
0 470 116 466 517 786 988 789 61 1 148 -6 195 -14z"/>
</g>
</svg>
